<svg width="38" height="24" viewBox="0 0 38 24" fill="none" xmlns="http://www.w3.org/2000/svg">
<g filter="url(#filter0_d_6_8367)">
<path fill-rule="evenodd" clip-rule="evenodd" d="M12.1623 9H33.078V7H12.1623C13.0142 6.44778 13.7921 5.71668 14.3913 4.74012C15.1475 3.50751 15.578 1.95036 15.578 -1.33514e-05H13.578C13.578 1.64961 13.2168 2.82996 12.6865 3.69424C12.1561 4.55886 11.4156 5.17368 10.5512 5.62681C9.04412 6.41683 7.28734 6.66893 5.76002 6.88811C5.47141 6.92953 5.191 6.96977 4.92201 7.01224L4.99951 8L4.92201 8.98776C5.191 9.03023 5.47141 9.07047 5.76002 9.11189C7.28734 9.33107 9.04412 9.58317 10.5512 10.3732C11.4156 10.8263 12.1561 11.4411 12.6865 12.3058C13.2168 13.17 13.578 14.3504 13.578 16H15.578C15.578 14.0496 15.1475 12.4925 14.3913 11.2599C13.7921 10.2833 13.0142 9.55222 12.1623 9Z" fill="black"/>
</g>
<defs>
<filter id="filter0_d_6_8367" x="0.921997" y="0" width="36.156" height="24" filterUnits="userSpaceOnUse" color-interpolation-filters="sRGB">
<feFlood flood-opacity="0" result="BackgroundImageFix"/>
<feColorMatrix in="SourceAlpha" type="matrix" values="0 0 0 0 0 0 0 0 0 0 0 0 0 0 0 0 0 0 127 0" result="hardAlpha"/>
<feOffset dy="4"/>
<feGaussianBlur stdDeviation="2"/>
<feComposite in2="hardAlpha" operator="out"/>
<feColorMatrix type="matrix" values="0 0 0 0 0 0 0 0 0 0 0 0 0 0 0 0 0 0 0.25 0"/>
<feBlend mode="normal" in2="BackgroundImageFix" result="effect1_dropShadow_6_8367"/>
<feBlend mode="normal" in="SourceGraphic" in2="effect1_dropShadow_6_8367" result="shape"/>
</filter>
</defs>
</svg>
