<?xml version="1.0" encoding="iso-8859-1"?>
<!-- Generator: Adobe Illustrator 19.0.0, SVG Export Plug-In . SVG Version: 6.00 Build 0)  -->
<svg version="1.1" id="Capa_1" xmlns="http://www.w3.org/2000/svg" xmlns:xlink="http://www.w3.org/1999/xlink" x="0px" y="0px"
	 viewBox="0 0 451.047 451.047" style="enable-background:new 0 0 451.047 451.047;" xml:space="preserve">
<path id="XMLID_1149_" d="M123.586,137.356h18v62.378h-18V137.356z M77.119,199.734h18v-62.378h-18V199.734z M327.461,137.356h-18
	v62.378h18V137.356z M373.929,137.356h-18v62.378h18V137.356z M234.523,137.356h-18v48.233h18V137.356z M170.056,199.734h18v-62.378
	h-18V199.734z M280.992,137.356h-18v62.378h18V137.356z M280.992,315.258h-18v62.378h18V315.258z M327.461,315.258h-18v62.378h18
	V315.258z M451.047,225.621v62.209h-10.285v21.325l-21.729,111.249H32.015L10.285,309.155V287.83H0v-62.209h10.285V203.47
	L53.422,93.046h79.896V79.549l19.106-48.906h146.198l19.104,48.907v13.497h79.898l43.136,110.424v22.151H451.047z M151.318,93.046
	h148.409V82.94L286.33,48.643H164.718L151.318,82.94V93.046z M28.285,225.621h166.697c7.874-7.733,18.66-12.508,30.541-12.508
	s22.667,4.775,30.541,12.508h166.697v-18.76l-37.429-95.815H65.715l-37.43,95.815V225.621z M225.523,231.113
	c-14.122,0-25.611,11.489-25.611,25.612s11.489,25.612,25.611,25.612s25.611-11.489,25.611-25.612S239.646,231.113,225.523,231.113z
	 M18,269.83h165.923c-1.307-4.139-2.011-8.54-2.011-13.105c0-4.563,0.705-8.967,2.011-13.104H18V269.83z M422.762,287.83H256.063
	c-7.874,7.731-18.66,12.507-30.54,12.507s-22.666-4.775-30.54-12.507H28.285v19.583l18.554,94.991h357.369l18.554-94.991V287.83z
	 M433.047,243.621H267.124c1.306,4.137,2.011,8.541,2.011,13.104c0,4.565-0.704,8.966-2.011,13.105h165.923V243.621z
	 M77.119,377.637h18v-62.378h-18V377.637z M373.929,315.258h-18v62.378h18V315.258z M123.586,377.637h18v-62.378h-18V377.637z
	 M170.056,377.637h18v-62.378h-18V377.637z M216.523,377.637h18v-48.232h-18V377.637z"/>
<g>
</g>
<g>
</g>
<g>
</g>
<g>
</g>
<g>
</g>
<g>
</g>
<g>
</g>
<g>
</g>
<g>
</g>
<g>
</g>
<g>
</g>
<g>
</g>
<g>
</g>
<g>
</g>
<g>
</g>
</svg>
