<?xml version="1.0" encoding="UTF-8" standalone="no"?>
<svg
   xmlns:dc="http://purl.org/dc/elements/1.1/"
   xmlns:cc="http://creativecommons.org/ns#"
   xmlns:rdf="http://www.w3.org/1999/02/22-rdf-syntax-ns#"
   xmlns:svg="http://www.w3.org/2000/svg"
   xmlns="http://www.w3.org/2000/svg"
   id="svg8"
   version="1.1"
   viewBox="0 0 74.7164 92.307739"
   height="92.307739mm"
   width="74.7164mm">
  <defs
     id="defs2" />
  <metadata
     id="metadata5">
    <rdf:RDF>
      <cc:Work
         rdf:about="">
        <dc:format>image/svg+xml</dc:format>
        <dc:type
           rdf:resource="http://purl.org/dc/dcmitype/StillImage" />
        <dc:title></dc:title>
      </cc:Work>
    </rdf:RDF>
  </metadata>
  <g
     transform="translate(-6.9878278,-5.820827)"
     id="layer1">
    <rect
       y="5.820827"
       x="6.9878278"
       height="92.307739"
       width="74.7164"
       id="rect403"
       style="fill:#e8e8e8;fill-opacity:1;stroke:none;stroke-width:0.636647;stroke-linecap:round;stroke-linejoin:round" />
    <text
       id="text407"
       y="81.533722"
       x="20.886259"
       style="font-size:10.5833px;line-height:1.25;font-family:'News Cycle';-inkscape-font-specification:'News Cycle';fill:#858585;fill-opacity:1;stroke:none;stroke-width:0.264583;stroke-opacity:1"
       xml:space="preserve"><tspan
         id="tspan409"
         style="fill:#858585;fill-opacity:1;stroke:none;stroke-width:0.264583;stroke-opacity:1"
         y="81.533722"
         x="20.886259">Brak zdjęcia</tspan></text>
    <g
       style="fill:#bebebe;fill-opacity:1"
       transform="matrix(0.00604192,0,0,-0.00604192,23.597719,56.933561)"
       fill="#000000"
       stroke="none"
       id="g268">
      <path
         style="fill:#bebebe;fill-opacity:1"
         d="m 3476,6991 c -12,-18 28,-28 127,-30 80,-2 97,0 97,12 0,8 -6,17 -12,20 -26,9 -206,8 -212,-2 z"
         id="path16" />
      <path
         style="fill:#bebebe;fill-opacity:1"
         d="m 3113,6979 c -13,-5 -23,-15 -23,-24 0,-12 12,-14 73,-9 39,3 81,7 92,9 11,2 28,4 38,4 9,1 17,8 17,17 0,12 -14,15 -87,13 -49,-1 -98,-5 -110,-10 z"
         id="path18" />
      <path
         style="fill:#bebebe;fill-opacity:1"
         d="m 3870,6967 c 0,-18 15,-24 78,-33 72,-11 135,-10 139,1 4,14 -65,32 -151,41 -56,6 -66,4 -66,-9 z"
         id="path20" />
      <path
         style="fill:#bebebe;fill-opacity:1"
         d="m 2797,6931 c -74,-17 -103,-34 -91,-53 3,-5 8,-6 12,-4 4,2 25,7 46,10 101,16 156,34 156,52 0,18 -25,17 -123,-5 z"
         id="path22" />
      <path
         style="fill:#bebebe;fill-opacity:1"
         d="m 4254,6908 c -11,-17 9,-27 91,-49 114,-29 113,-29 125,-14 9,11 -3,18 -67,38 -96,31 -141,38 -149,25 z"
         id="path24" />
      <path
         style="fill:#bebebe;fill-opacity:1"
         d="m 3478,6875 c -2,-1 -73,-5 -158,-9 -85,-4 -168,-9 -185,-11 -59,-8 -248,-37 -269,-41 -174,-33 -386,-90 -511,-138 -33,-13 -87,-34 -120,-46 -93,-36 -365,-172 -486,-245 C 1287,6106 887,5702 598,5220 471,5010 387,4827 307,4590 267,4473 206,4252 194,4183 c -5,-27 -11,-59 -18,-92 -3,-14 -10,-61 -16,-105 -6,-45 -13,-92 -16,-106 -23,-131 -23,-639 1,-755 2,-11 6,-38 9,-60 62,-506 241,-984 538,-1435 97,-148 164,-233 293,-375 303,-333 624,-579 1007,-771 360,-181 723,-286 1168,-341 84,-10 561,-10 664,0 96,9 229,27 236,32 3,2 26,6 50,10 319,46 776,217 1108,413 252,150 437,295 667,526 198,199 298,320 442,538 57,87 106,158 108,158 2,0 20,-9 39,-21 20,-12 37,-17 37,-12 1,4 1,47 -1,94 -2,81 1,92 35,165 102,217 217,552 249,724 2,14 13,72 25,130 11,58 23,130 27,160 3,30 9,64 11,75 3,11 7,151 10,310 3,288 -8,468 -43,645 -2,14 -7,38 -10,54 -3,16 -22,97 -44,180 -122,475 -324,885 -630,1278 -71,91 -392,420 -469,481 -27,21 -57,46 -68,55 -35,32 -159,120 -283,201 -135,89 -397,224 -555,288 -160,65 -447,153 -575,176 -14,3 -63,12 -110,21 -47,9 -107,19 -135,22 -27,3 -61,7 -75,10 -14,3 -99,7 -190,10 -91,3 -173,7 -182,8 -9,2 -18,3 -20,1 z m -408,-345 c 0,-22 -35,-80 -52,-86 -40,-12 -48,14 -18,64 14,22 27,32 45,32 14,0 25,-4 25,-10 z m 380,-99 c 26,-28 49,-68 43,-75 -14,-14 -57,-4 -84,18 -16,13 -36,23 -46,21 -10,-2 -24,-4 -31,-4 -7,-1 -21,-15 -31,-32 -37,-60 -9,-172 45,-185 41,-10 71,4 88,41 12,25 23,35 40,35 31,0 37,-18 21,-57 -20,-48 -71,-78 -130,-77 -91,1 -136,50 -141,154 -4,85 21,144 68,165 45,19 138,17 158,-4 z m 316,-10 c 1,-20 -30,-65 -76,-111 -33,-33 -109,-130 -103,-131 4,-1 49,-2 98,-3 l 90,-2 3,-28 3,-27 -145,2 c -128,3 -146,5 -146,20 0,23 42,82 121,170 38,42 69,79 69,82 0,2 -34,4 -76,3 -87,-3 -123,13 -91,38 14,11 48,14 135,13 116,-2 117,-2 118,-26 z m -645,-18 c 33,-20 39,-34 53,-113 4,-19 8,-46 11,-60 11,-66 15,-120 8,-120 -4,0 -18,-3 -29,-6 -19,-5 -23,-1 -29,38 -15,101 -38,188 -52,200 -36,30 -97,10 -108,-35 -3,-12 1,-67 9,-121 9,-54 13,-103 10,-107 -8,-13 -40,-11 -51,4 -6,6 -16,48 -23,92 -7,44 -13,87 -15,95 -1,8 -6,39 -10,68 -6,48 -5,52 14,52 28,0 37,-3 34,-12 -5,-13 4,-9 43,17 43,29 93,32 135,8 z m 917,-10 c 45,-32 63,-79 58,-150 -6,-78 -24,-112 -74,-141 -87,-48 -189,-12 -221,78 -25,74 14,186 77,220 46,25 121,22 160,-7 z m -1208,-95 c 12,-40 30,-102 41,-137 10,-35 19,-74 19,-88 0,-24 -3,-25 -34,-20 -26,4 -39,1 -51,-13 -38,-42 -123,-47 -161,-8 -21,22 -84,208 -84,249 0,19 37,36 50,22 4,-4 22,-54 39,-110 37,-119 55,-140 105,-119 50,20 57,45 34,134 -10,42 -24,90 -30,106 -10,25 -9,31 7,42 34,25 44,16 65,-58 z m -496,-94 c 22,-53 42,-92 47,-87 5,5 19,35 33,68 41,101 111,134 74,35 -35,-93 -34,-96 62,-162 47,-33 86,-63 88,-68 2,-5 -12,-13 -30,-18 -30,-8 -40,-4 -107,41 -54,36 -75,46 -81,37 -5,-7 -7,-18 -5,-24 2,-6 11,-35 20,-65 15,-45 15,-55 4,-62 -30,-19 -47,-9 -68,44 -12,28 -26,61 -31,72 -5,11 -31,76 -59,145 l -49,125 20,18 c 29,24 38,13 82,-99 z m 2475,75 32,-11 -6,-217 c -6,-192 -9,-260 -14,-269 0,-1 -15,5 -31,13 -30,15 -30,17 -28,87 l 3,71 -79,34 -80,34 -52,-52 c -53,-52 -53,-52 -79,-35 -23,15 -25,20 -13,34 12,16 310,322 313,322 1,0 16,-5 34,-11 z m -450,-91 c 69,-24 83,-40 57,-66 -14,-15 -21,-14 -86,7 -66,21 -70,24 -70,52 0,36 13,37 99,7 z m -2155,-88 c 30,-11 82,-63 89,-89 3,-14 -13,-27 -77,-61 -44,-23 -90,-51 -100,-60 -19,-18 -18,-19 15,-39 19,-12 42,-21 52,-21 24,0 77,53 77,76 0,33 57,75 61,44 7,-57 -2,-89 -36,-123 -84,-84 -202,-63 -258,45 -30,58 -29,133 2,177 37,52 114,75 175,51 z m -341,-43 c 18,-28 6,-57 -24,-57 -25,0 -45,46 -28,66 17,20 35,17 52,-9 z m 3407,-43 c 0,-28 -217,-374 -235,-374 -14,0 -45,26 -45,39 0,3 -12,8 -27,9 -64,4 -105,54 -105,125 1,136 133,239 232,180 16,-9 33,-27 39,-40 14,-31 23,-29 45,12 28,52 52,74 76,68 11,-3 20,-11 20,-19 z M 2000,5849 c 44,-65 80,-124 80,-132 0,-16 -20,-37 -35,-37 -12,0 -102,131 -150,217 -29,53 -29,55 -11,68 10,8 23,12 28,9 5,-3 45,-59 88,-125 z m -131,3 c 73,-54 109,-157 77,-224 -18,-37 -61,-68 -96,-68 -19,0 -18,-4 19,-56 40,-55 43,-77 14,-88 -21,-9 -32,2 -123,120 -121,156 -162,224 -148,241 7,9 21,12 35,8 17,-4 23,-1 23,12 1,23 28,55 60,70 33,15 109,7 139,-15 z m 1918,-46 c 89,-11 109,-14 140,-20 15,-4 41,-9 58,-12 152,-27 397,-110 560,-189 340,-165 618,-400 878,-742 26,-34 47,-63 47,-66 0,-2 23,-42 51,-88 101,-166 203,-409 249,-589 39,-155 50,-223 69,-417 10,-107 6,-372 -6,-384 -12,-12 -84,17 -283,116 -160,78 -151,73 -303,183 -134,98 -251,166 -302,176 -16,4 -41,9 -55,12 -52,12 -345,11 -397,-1 -64,-15 -148,-57 -194,-96 -45,-39 -82,-55 -215,-90 -99,-26 -132,-30 -290,-33 -197,-5 -290,-20 -384,-62 -55,-25 -63,-26 -122,-15 -35,6 -103,13 -153,16 -70,4 -119,15 -220,49 -72,24 -153,57 -180,73 -110,64 -163,76 -330,77 -142,0 -153,-1 -183,-23 -41,-29 -62,-70 -69,-135 l -5,-51 86,-22 c 47,-12 143,-45 213,-73 109,-43 137,-59 188,-106 84,-79 145,-118 255,-162 71,-29 123,-60 205,-122 134,-103 209,-149 300,-184 78,-31 199,-95 340,-180 33,-20 77,-41 99,-47 40,-11 123,-6 201,11 38,8 353,62 440,76 22,3 87,17 145,31 179,44 462,38 590,-13 111,-43 326,-211 316,-245 -19,-62 -19,-65 7,-35 25,29 47,28 47,-1 0,-9 -12,-37 -27,-62 -39,-68 -169,-263 -190,-286 -10,-11 -36,-43 -58,-70 -67,-83 -215,-227 -315,-307 -319,-253 -614,-391 -1020,-477 -128,-27 -207,-32 -465,-33 -215,0 -364,15 -505,52 -201,53 -284,81 -398,131 -425,188 -769,480 -1025,869 -126,193 -277,534 -253,572 16,26 21,23 44,-29 24,-57 30,-28 7,37 l -15,43 37,46 c 47,58 194,231 248,291 22,25 52,60 66,77 37,42 117,131 211,235 44,48 87,95 96,106 19,21 154,172 191,211 266,291 475,501 498,501 22,0 37,-22 64,-95 15,-39 29,-60 49,-70 36,-19 61,-10 115,39 48,43 91,57 141,46 39,-9 139,-74 214,-139 259,-225 317,-262 413,-265 46,-1 62,5 115,37 82,51 116,46 188,-29 l 52,-53 18,22 c 11,12 27,34 37,49 9,15 34,36 55,47 20,10 48,31 62,46 14,15 41,35 60,45 64,34 137,119 165,193 39,104 33,139 -32,205 -13,13 -23,35 -23,49 0,25 -2,25 -47,20 -34,-5 -64,-1 -100,12 -43,14 -90,18 -264,20 -205,2 -214,3 -262,28 -27,13 -109,38 -181,54 -141,32 -242,75 -396,170 -105,64 -202,109 -311,144 -71,23 -103,27 -209,28 -96,1 -137,-3 -177,-16 -60,-21 -152,-79 -203,-128 -143,-137 -363,-335 -457,-410 -61,-49 -213,-168 -244,-191 -106,-78 -192,-138 -200,-138 -5,0 -6,18 -3,42 9,51 -12,45 -22,-6 -8,-47 -43,-103 -54,-87 -18,29 76,319 161,496 89,187 200,356 343,525 57,67 230,232 320,304 222,179 515,326 815,411 126,35 275,64 371,71 47,4 86,7 87,8 6,4 373,-3 420,-8 z m 1578,-19 c 48,-27 85,-80 85,-121 -1,-58 -47,-134 -103,-171 -27,-17 -102,-21 -137,-7 -57,23 -102,102 -93,162 5,36 52,99 97,132 48,35 96,36 151,5 z m -3846,-92 c 83,-27 155,-116 165,-206 13,-112 -96,-229 -212,-229 -53,0 -134,43 -181,96 -150,171 11,411 228,339 z m 4049,-87 c 7,-7 12,-19 12,-27 0,-9 18,-24 39,-34 139,-64 50,-290 -115,-291 -61,-1 -100,22 -120,70 -8,19 -16,34 -19,34 -3,0 -24,-18 -46,-40 -23,-22 -45,-40 -49,-40 -4,0 -18,8 -30,18 l -22,17 134,126 c 146,138 190,178 199,179 3,0 10,-5 17,-12 z m 236,-282 c 51,-21 86,-74 86,-127 -1,-65 -32,-98 -60,-64 -9,11 -9,22 -2,44 13,36 -3,71 -40,89 -36,17 -81,-2 -131,-53 -44,-45 -47,-76 -11,-112 21,-21 32,-25 64,-20 33,4 41,1 55,-19 15,-24 15,-25 -16,-38 -53,-22 -130,5 -164,58 -52,78 -9,180 98,238 39,21 77,22 121,4 z M 1218,5159 c 12,-5 25,-15 28,-22 3,-8 -20,-56 -50,-107 -30,-51 -53,-97 -50,-102 11,-17 73,-8 99,15 29,25 36,51 23,86 -9,26 6,81 23,81 16,0 39,-46 43,-86 5,-53 -26,-118 -69,-144 -59,-36 -139,-27 -199,22 -66,54 -84,121 -52,190 35,74 114,100 204,67 z m 4742,-47 c 0,-8 -26,-51 -58,-95 -32,-45 -62,-87 -65,-94 -7,-11 38,-3 169,31 56,15 65,12 82,-19 10,-20 4,-23 -151,-59 -295,-71 -310,-72 -343,-22 -32,50 11,87 51,44 46,-49 77,-27 196,141 33,47 67,93 76,104 16,17 18,17 30,1 7,-10 13,-24 13,-32 z M 864,4985 c 13,-10 17,-21 12,-39 -8,-31 -35,-34 -59,-8 -15,16 -15,20 -1,40 18,26 22,26 48,7 z m 206,-118 c 113,-67 140,-85 140,-97 0,-18 -31,-39 -48,-33 -18,7 -165,91 -219,127 -34,22 -41,44 -22,63 15,15 32,8 149,-60 z m 5154,45 c 13,-26 13,-29 -5,-40 -29,-18 -45,-15 -57,13 -10,22 -9,26 16,39 15,9 28,15 29,16 1,0 9,-13 17,-28 z m -107,-52 c 7,-10 10,-25 8,-32 -8,-21 -310,-179 -353,-185 -34,-5 -42,-1 -60,22 -26,33 -28,60 -6,69 25,10 31,7 37,-15 4,-16 10,-19 29,-14 18,6 245,127 308,165 21,13 24,12 37,-10 z M 995,4765 c 48,-44 91,-82 96,-83 21,-8 40,-62 29,-82 -11,-21 -45,-20 -170,5 l -65,14 30,-27 c 17,-15 54,-47 83,-71 53,-46 63,-69 38,-94 -11,-11 -26,-12 -63,-7 -26,5 -71,10 -100,14 -28,3 -81,10 -117,17 l -65,11 15,29 c 11,22 20,28 37,24 20,-4 49,-9 132,-21 17,-3 41,-7 55,-9 25,-5 22,-2 -124,126 -28,25 -29,29 -18,54 13,29 17,29 112,10 14,-3 48,-8 75,-11 l 50,-6 -25,23 c -14,13 -50,46 -80,73 -57,51 -62,59 -48,89 11,23 17,19 123,-78 z m 5195,-30 c 9,-11 10,-18 1,-29 -9,-11 -4,-21 24,-49 31,-31 35,-41 35,-84 0,-65 -15,-78 -154,-137 -95,-40 -112,-45 -124,-32 -27,27 -4,50 91,90 50,22 100,46 110,54 22,19 21,51 -2,81 -17,22 -24,23 -69,18 -29,-3 -82,-19 -119,-36 -73,-32 -85,-31 -101,3 -10,22 -5,25 126,79 150,61 164,64 182,42 z m 86,-328 c 61,-31 88,-150 49,-210 -18,-29 -78,-64 -105,-63 -9,1 -24,26 -38,66 -12,36 -30,85 -39,109 l -16,44 -34,-36 c -27,-30 -32,-42 -27,-65 8,-34 42,-72 65,-72 18,0 29,-19 29,-52 0,-17 -4,-19 -32,-13 -51,11 -78,33 -100,82 -44,99 3,193 110,223 40,11 104,5 138,-13 z M 894,4361 c 56,-27 79,-67 79,-132 0,-96 -64,-153 -163,-147 -100,7 -160,54 -173,138 -5,30 17,97 41,123 45,51 132,58 216,18 z M 650,4076 c 0,-26 15,-35 67,-42 18,-2 50,-8 71,-12 43,-10 76,-1 85,22 4,9 17,16 30,16 29,0 34,-37 11,-82 l -15,-30 -72,7 c -39,3 -73,8 -76,10 -3,1 -30,6 -59,9 -41,4 -54,2 -59,-9 -11,-30 -49,-15 -44,17 0,4 -16,12 -37,18 -25,6 -43,18 -50,35 -14,30 -5,36 46,29 34,-5 42,-2 52,15 15,30 50,28 50,-3 z m 5728,-125 c 35,-19 65,-93 57,-141 l -6,-38 38,6 c 82,12 98,9 101,-20 4,-29 -3,-33 -83,-43 -51,-6 -268,-41 -317,-51 -32,-6 -58,27 -38,51 7,8 7,15 1,19 -5,4 -15,30 -22,59 -10,45 -9,58 5,84 18,35 63,71 104,83 39,11 133,6 160,-9 z M 824,3895 c 90,-43 87,-212 -4,-257 -22,-11 -58,-18 -95,-18 -72,0 -122,22 -148,67 -46,80 -21,175 59,218 35,20 137,14 188,-10 z m 5744,-302 -3,-28 -222,-3 -223,-3 v 31 30 h 226 225 z M 890,3576 c 23,-2 54,-13 68,-23 47,-35 58,-145 22,-213 -10,-19 -64,-42 -74,-33 -14,14 -4,47 19,69 50,46 24,128 -43,139 l -33,5 14,-27 c 17,-33 16,-78 -2,-121 -18,-42 -82,-73 -155,-73 -117,-2 -186,84 -150,187 8,24 10,40 4,42 -10,4 -14,45 -5,54 6,6 263,1 335,-6 z m 5386,-67 c 21,-20 38,-68 49,-138 7,-44 12,-51 35,-51 23,0 41,30 42,72 1,22 -7,38 -25,54 -27,23 -34,48 -19,70 8,14 29,6 65,-22 24,-19 27,-30 31,-93 3,-71 -8,-113 -39,-137 -7,-5 -55,-11 -107,-13 -51,-1 -113,-4 -138,-4 -43,-2 -45,-1 -42,23 2,14 8,30 13,36 6,7 3,25 -6,47 -31,74 -14,150 37,171 39,17 76,11 104,-15 z M 838,3250 c 53,-32 74,-75 69,-142 -6,-94 -61,-138 -177,-140 -109,-2 -154,43 -154,154 0,52 3,61 33,92 38,39 76,54 146,55 34,1 61,-6 83,-19 z m 5335,-173 c 12,-12 74,-86 138,-164 l 116,-142 11,52 c 6,29 17,80 24,115 9,46 16,61 26,57 7,-3 21,-5 29,-5 12,0 14,-7 8,-37 -4,-21 -9,-49 -12,-63 -15,-85 -45,-206 -53,-214 -19,-19 -74,31 -172,155 -76,96 -147,177 -148,167 0,-6 -28,-140 -34,-163 -2,-5 -6,-27 -11,-47 -7,-39 -24,-48 -54,-29 -12,8 -10,28 13,128 29,130 33,145 42,186 7,35 45,37 77,4 z M 739,2866 c 17,-17 37,-55 52,-99 13,-40 28,-77 34,-84 7,-8 27,-6 80,8 88,23 84,23 94,-3 15,-39 20,-37 -329,-134 -47,-13 -86,-24 -87,-24 -1,0 -14,39 -29,88 -34,110 -38,200 -9,232 49,55 145,63 194,16 z m 5436,-190 c 39,-3 91,-5 118,-5 52,-1 61,-15 28,-45 -16,-15 -31,-16 -88,-11 -37,4 -85,9 -105,11 -21,2 -38,0 -38,-4 0,-4 28,-26 63,-49 104,-72 119,-87 111,-118 l -7,-27 -88,7 c -49,3 -100,8 -114,11 -40,7 -29,-8 42,-56 93,-63 113,-84 106,-109 -3,-12 -9,-24 -14,-26 -6,-4 -154,104 -240,175 -18,15 -22,30 -20,64 1,17 8,18 96,12 52,-4 101,-9 110,-12 8,-4 15,-1 15,5 0,6 -4,11 -8,11 -5,0 -17,8 -28,18 -10,10 -41,33 -69,52 -58,39 -65,48 -58,69 12,33 24,39 71,35 26,-2 79,-6 117,-8 z M 1097,2419 c 44,-42 59,-89 54,-167 -2,-32 -73,-99 -118,-111 -89,-25 -156,-4 -191,58 -41,72 -21,151 50,204 36,27 46,18 105,-94 l 47,-90 25,25 c 49,50 24,129 -46,142 -35,7 -54,29 -45,53 7,22 88,8 119,-20 z m 4928,-133 c 121,-63 145,-87 112,-114 -10,-9 -41,3 -135,51 -148,75 -167,90 -152,118 14,26 24,23 175,-55 z m -78,-67 c 82,-31 129,-96 119,-167 -10,-76 -71,-132 -144,-132 -46,0 -102,23 -102,42 0,6 20,48 45,94 56,101 57,114 10,114 -50,0 -89,-39 -83,-83 3,-18 8,-39 12,-48 4,-9 -1,-25 -12,-39 l -19,-23 -22,24 c -20,21 -22,32 -18,85 4,49 10,68 33,94 49,56 105,68 181,39 z m -4717,-29 c 8,-15 6,-24 -8,-38 -24,-24 -238,-142 -257,-142 -22,0 -38,36 -23,50 16,14 260,149 270,150 4,0 12,-9 18,-20 z m 5030,-24 c 12,-15 -9,-48 -33,-52 -26,-4 -50,31 -38,54 11,21 52,20 71,-2 z m -4988,-43 c 15,-27 14,-32 -19,-112 -42,-104 -34,-114 52,-67 l 60,34 17,-23 c 22,-29 29,-21 -171,-155 -165,-110 -188,-121 -202,-99 -17,27 -8,39 76,96 47,32 84,63 82,68 -2,6 -31,15 -65,21 -63,11 -86,24 -103,56 -10,18 -7,19 33,12 24,-4 61,-7 83,-8 43,-1 39,-7 110,167 18,44 26,46 47,10 z M 901,2002 c 16,-43 -41,-69 -65,-29 -9,15 -7,22 13,38 28,23 41,21 52,-9 z m 4833,-39 c 39,-27 73,-51 76,-54 3,-3 26,-20 52,-37 26,-18 50,-37 53,-42 10,-17 -14,-50 -32,-43 -13,5 -15,1 -11,-22 5,-24 -3,-37 -51,-89 -31,-34 -78,-89 -105,-123 -56,-71 -80,-79 -94,-30 -11,33 -29,114 -36,157 -9,56 -28,112 -35,104 -4,-5 -23,-29 -42,-54 -18,-25 -42,-54 -51,-64 -20,-22 -23,-36 -9,-36 10,0 20,-23 27,-57 6,-30 -17,-84 -61,-143 -34,-46 -34,-48 -16,-65 22,-19 44,-15 80,15 18,16 24,31 25,67 1,38 5,47 23,54 13,5 25,4 28,-1 42,-68 -52,-212 -136,-208 -31,2 -80,37 -157,115 -35,34 -68,63 -73,63 -5,0 -9,15 -9,34 0,41 -21,63 -40,41 -16,-19 -36,-19 -44,1 -8,21 9,51 35,59 40,13 69,-3 89,-50 20,-46 40,-60 40,-27 0,48 78,122 129,122 20,0 22,2 10,16 -8,10 -9,18 -2,22 5,4 47,53 92,109 52,65 87,100 95,97 15,-6 31,-41 41,-89 3,-16 8,-41 10,-55 8,-39 25,-144 25,-152 0,-21 22,-2 73,65 31,39 60,77 65,82 36,44 26,62 -79,145 -49,39 -89,73 -89,76 0,10 21,44 27,44 3,0 38,-21 77,-47 z M 1472,1839 c 36,-26 70,-98 64,-134 -9,-46 -17,-65 -30,-65 -25,0 -37,27 -31,67 6,41 -3,59 -44,86 -18,12 -29,13 -43,6 -22,-12 -17,-38 19,-114 28,-58 25,-101 -10,-132 -58,-53 -187,25 -189,114 -1,39 11,73 26,73 22,0 44,-33 36,-55 -10,-27 8,-64 40,-80 50,-26 56,-6 22,90 -35,103 -32,132 19,158 40,21 78,16 121,-14 z m 352,-190 c 29,-23 32,-36 11,-63 -13,-18 -15,-18 -44,3 -59,43 -87,10 -176,-208 -39,-95 -54,-112 -79,-91 -13,10 -12,18 1,63 8,29 28,78 44,109 16,32 29,62 29,67 0,5 -49,-13 -110,-41 -107,-50 -110,-51 -130,-33 -11,10 -17,21 -15,26 9,14 303,153 370,175 56,18 69,17 99,-7 z m 30,-224 c -6,-27 -14,-355 -9,-355 5,0 111,141 145,193 14,20 33,40 43,43 18,6 47,-11 47,-27 0,-9 -83,-127 -188,-267 -30,-41 -61,-76 -68,-79 -8,-3 -24,3 -35,13 -19,17 -19,26 -13,178 3,88 7,172 8,188 1,15 -1,28 -5,28 -4,0 -46,-54 -93,-120 -48,-66 -91,-122 -97,-126 -14,-8 -50,36 -42,50 18,28 218,303 236,323 l 20,22 27,-22 c 19,-14 27,-29 24,-42 z m 3314,-5 c 11,-11 46,-51 77,-90 40,-51 62,-70 79,-70 30,0 54,-26 38,-42 -9,-9 -6,-20 9,-44 17,-29 18,-36 7,-64 l -13,-32 -38,42 c -31,33 -42,39 -53,29 -18,-15 -44,-5 -44,17 0,9 7,22 16,28 13,10 12,15 -10,39 -14,16 -26,31 -26,35 0,6 -19,32 -61,80 -7,8 -22,12 -38,9 -15,-3 -34,1 -46,9 -26,19 -11,45 36,61 45,16 42,16 67,-7 z M 2325,980 c 32,-30 40,-71 21,-107 -19,-39 -35,-51 -71,-56 -79,-11 -134,66 -99,139 26,55 103,67 149,24 z m 452,10 c 12,0 9,-37 -8,-100 -5,-19 -9,-45 -9,-58 v -23 l 26,20 c 27,21 92,46 100,38 3,-3 1,-23 -5,-45 -9,-34 -19,-44 -69,-70 -31,-18 -63,-35 -70,-40 -11,-8 -51,-137 -52,-168 0,-6 60,-25 134,-43 l 133,-32 -7,-38 c -9,-51 -17,-61 -43,-56 -52,10 -256,58 -304,72 -60,16 -60,17 -37,105 17,67 10,87 -25,69 -25,-14 -26,-6 -10,48 7,22 23,44 43,56 28,18 34,32 61,135 43,160 36,149 87,139 24,-4 48,-8 55,-9 z m 1944,-1 c 48,-19 72,-86 47,-132 -18,-35 -40,-46 -90,-47 -49,0 -86,25 -89,59 -5,55 2,78 28,101 32,28 66,35 104,19 z m -585,-33 c 16,-19 326,-473 327,-480 2,-12 -100,-37 -119,-29 -8,3 -23,21 -35,41 -36,60 -40,62 -132,41 -126,-29 -123,-27 -132,-103 -3,-36 -10,-66 -13,-66 -4,0 -31,-3 -61,-7 l -53,-6 6,59 c 3,33 8,70 11,84 4,22 33,227 50,345 14,105 12,100 63,117 37,13 79,15 88,4 z m -801,-70 c 13,-11 42,-95 100,-291 15,-49 38,-125 51,-169 14,-43 24,-88 22,-100 -3,-18 -9,-20 -48,-17 -63,4 -76,14 -89,65 -16,64 -29,73 -118,81 -43,3 -87,8 -98,10 -16,3 -25,-7 -44,-53 -29,-66 -36,-72 -71,-66 -14,2 -36,6 -50,8 -18,3 -24,9 -23,24 1,11 49,114 106,228 165,333 140,295 198,293 28,-2 56,-7 64,-13 z m 521,-4 c 16,-7 40,-29 54,-50 21,-31 25,-49 25,-107 0,-84 -25,-127 -89,-156 -37,-16 -167,-37 -190,-31 -5,2 -6,-44 -3,-103 5,-79 3,-107 -6,-110 -25,-8 -98,-12 -101,-6 -3,4 -7,38 -11,76 -3,39 -8,84 -10,100 -2,17 -7,66 -10,110 -3,44 -8,96 -10,115 -15,129 -16,160 -3,160 31,2 153,12 155,14 8,8 176,-3 199,-12 z"
         id="path26" />
      <path
         style="fill:#bebebe;fill-opacity:1"
         d="m 3924,6355 c -39,-16 -59,-57 -59,-122 0,-45 4,-58 24,-74 47,-38 123,-13 136,44 13,60 13,83 -1,113 -20,41 -59,57 -100,39 z"
         id="path28" />
      <path
         style="fill:#bebebe;fill-opacity:1"
         d="m 4716,6138 c -31,-34 -55,-66 -53,-71 4,-13 95,-48 101,-39 6,10 18,172 12,172 -2,0 -29,-28 -60,-62 z"
         id="path30" />
      <path
         style="fill:#bebebe;fill-opacity:1"
         d="m 2114,6048 c -23,-11 -54,-57 -54,-81 0,-29 20,-28 74,2 72,41 82,55 53,68 -38,19 -51,21 -73,11 z"
         id="path32" />
      <path
         style="fill:#bebebe;fill-opacity:1"
         d="m 4967,5914 c -50,-51 -64,-118 -30,-155 37,-42 103,-18 142,52 27,48 27,93 -1,119 -33,31 -69,25 -111,-16 z"
         id="path34" />
      <path
         style="fill:#bebebe;fill-opacity:1"
         d="m 1732,5800 c -29,-27 -28,-71 3,-119 44,-71 103,-92 140,-51 39,43 9,136 -56,174 -36,21 -61,20 -87,-4 z"
         id="path36" />
      <path
         style="fill:#bebebe;fill-opacity:1"
         d="m 3545,5770 c -16,-3 -25,-8 -20,-12 15,-9 125,-5 125,4 0,4 -8,8 -17,9 -10,0 -27,2 -38,3 -11,1 -33,-1 -50,-4 z"
         id="path38" />
      <path
         style="fill:#bebebe;fill-opacity:1"
         d="m 3270,5760 c -19,-12 -9,-14 65,-10 79,3 91,19 15,20 -36,0 -72,-5 -80,-10 z"
         id="path40" />
      <path
         style="fill:#bebebe;fill-opacity:1"
         d="m 3781,5751 c -7,-5 10,-11 41,-14 74,-9 94,-9 83,2 -13,12 -109,21 -124,12 z"
         id="path42" />
      <path
         style="fill:#bebebe;fill-opacity:1"
         d="m 3075,5733 c -11,-2 -30,-6 -42,-9 -13,-2 -23,-9 -23,-15 0,-14 67,-5 113,15 l 32,14 h -30 c -16,0 -39,-2 -50,-5 z"
         id="path44" />
      <path
         style="fill:#bebebe;fill-opacity:1"
         d="m 4024,5711 c 4,-6 26,-15 49,-21 23,-6 50,-13 60,-16 32,-10 17,14 -15,25 -62,18 -101,24 -94,12 z"
         id="path46" />
      <path
         style="fill:#bebebe;fill-opacity:1"
         d="m 2835,5668 c -58,-22 -85,-44 -44,-34 45,10 113,42 103,48 -5,3 -31,-3 -59,-14 z"
         id="path48" />
      <path
         style="fill:#bebebe;fill-opacity:1"
         d="m 4266,5642 c -6,-10 110,-55 127,-49 6,2 -7,14 -30,26 -24,12 -43,19 -43,16 0,-2 -11,0 -25,5 -13,5 -26,6 -29,2 z"
         id="path50" />
      <path
         style="fill:#bebebe;fill-opacity:1"
         d="m 2580,5570 c -30,-16 -47,-29 -38,-29 18,-1 128,46 128,54 0,12 -40,1 -90,-25 z"
         id="path52" />
      <path
         style="fill:#bebebe;fill-opacity:1"
         d="m 4500,5546 c 0,-10 111,-67 122,-64 7,3 -13,19 -44,36 -51,29 -78,39 -78,28 z"
         id="path54" />
      <path
         style="fill:#bebebe;fill-opacity:1"
         d="m 2361,5454 c -29,-19 -51,-38 -47,-41 7,-7 116,58 116,69 0,14 -13,8 -69,-28 z"
         id="path56" />
      <path
         style="fill:#bebebe;fill-opacity:1"
         d="m 4740,5406 c 36,-34 104,-72 98,-56 -5,16 -95,80 -111,80 -7,0 0,-11 13,-24 z"
         id="path58" />
      <path
         style="fill:#bebebe;fill-opacity:1"
         d="m 2159,5318 c -58,-45 -63,-69 -5,-28 53,39 74,60 58,60 -6,0 -30,-15 -53,-32 z"
         id="path60" />
      <path
         style="fill:#bebebe;fill-opacity:1"
         d="m 4980,5230 c 30,-27 57,-47 60,-44 7,8 -86,94 -102,94 -7,-1 12,-23 42,-50 z"
         id="path62" />
      <path
         style="fill:#bebebe;fill-opacity:1"
         d="m 1956,5144 c -26,-26 -44,-49 -41,-52 3,-3 29,17 58,46 28,29 47,52 41,52 -6,0 -32,-21 -58,-46 z"
         id="path64" />
      <path
         style="fill:#bebebe;fill-opacity:1"
         d="m 5129,5092 c 12,-22 80,-82 93,-82 5,0 -12,23 -38,50 -48,51 -73,65 -55,32 z"
         id="path66" />
      <path
         style="fill:#bebebe;fill-opacity:1"
         d="m 1785,4963 c -19,-25 -33,-49 -29,-52 3,-3 14,5 25,19 47,60 60,80 50,80 -5,0 -26,-21 -46,-47 z"
         id="path68" />
      <path
         style="fill:#bebebe;fill-opacity:1"
         d="m 5297,4907 c 52,-82 83,-115 83,-89 0,13 -71,102 -82,102 -5,0 -5,-6 -1,-13 z"
         id="path70" />
      <path
         style="fill:#bebebe;fill-opacity:1"
         d="m 1628,4756 c -42,-60 -40,-86 2,-28 35,49 53,82 43,82 -4,-1 -25,-25 -45,-54 z"
         id="path72" />
      <path
         style="fill:#bebebe;fill-opacity:1"
         d="m 5440,4706 c 0,-2 11,-24 25,-49 25,-43 55,-78 55,-62 0,15 -62,115 -71,115 -5,0 -9,-2 -9,-4 z"
         id="path74" />
      <path
         style="fill:#bebebe;fill-opacity:1"
         d="m 1521,4579 c -7,-12 -22,-42 -32,-67 -15,-35 -16,-42 -4,-32 23,19 72,120 57,120 -4,0 -13,-10 -21,-21 z"
         id="path76" />
      <path
         style="fill:#bebebe;fill-opacity:1"
         d="m 5565,4480 c 22,-69 65,-143 65,-111 0,19 -47,118 -60,126 -9,5 -10,1 -5,-15 z"
         id="path78" />
      <path
         style="fill:#bebebe;fill-opacity:1"
         d="m 1423,4358 c -5,-7 -12,-20 -16,-28 -3,-8 -13,-32 -22,-54 -10,-24 -12,-37 -5,-34 7,2 23,30 36,63 24,58 26,78 7,53 z"
         id="path80" />
      <path
         style="fill:#bebebe;fill-opacity:1"
         d="m 5671,4220 c 5,-23 16,-55 23,-73 l 14,-32 1,30 c 1,27 -32,115 -42,115 -3,0 -1,-18 4,-40 z"
         id="path82" />
      <path
         style="fill:#bebebe;fill-opacity:1"
         d="m 5736,3971 c 5,-50 25,-101 31,-82 7,18 -16,121 -27,121 -4,0 -6,-18 -4,-39 z"
         id="path84" />
      <path
         style="fill:#bebebe;fill-opacity:1"
         d="m 5779,3749 c -7,-19 -3,-119 5,-126 11,-12 18,5 18,49 -1,49 -16,100 -23,77 z"
         id="path86" />
      <path
         style="fill:#bebebe;fill-opacity:1"
         d="m 5789,3498 c -5,-56 0,-133 8,-125 12,12 16,137 4,137 -6,0 -12,-6 -12,-12 z"
         id="path88" />
      <path
         style="fill:#bebebe;fill-opacity:1"
         d="m 1430,2618 c 1,-20 36,-95 49,-102 16,-10 14,-4 -13,59 -24,53 -36,68 -36,43 z"
         id="path90" />
      <path
         style="fill:#bebebe;fill-opacity:1"
         d="m 1538,2405 c -3,-4 10,-34 30,-68 22,-37 38,-55 40,-45 2,8 -7,31 -20,51 -13,19 -28,42 -33,52 -6,9 -13,14 -17,10 z"
         id="path92" />
      <path
         style="fill:#bebebe;fill-opacity:1"
         d="m 5407,2246 c -20,-31 -37,-59 -37,-62 0,-13 33,22 57,59 39,62 21,65 -20,3 z"
         id="path94" />
      <path
         style="fill:#bebebe;fill-opacity:1"
         d="m 1684,2168 c 34,-59 48,-77 62,-82 27,-10 14,15 -32,62 -32,32 -41,38 -30,20 z"
         id="path96" />
      <path
         style="fill:#bebebe;fill-opacity:1"
         d="m 5250,2039 c -23,-27 -40,-53 -37,-56 7,-6 73,62 88,89 19,35 -9,17 -51,-33 z"
         id="path98" />
      <path
         style="fill:#bebebe;fill-opacity:1"
         d="m 1841,1973 c 34,-44 89,-97 89,-87 0,15 -79,104 -92,104 -6,0 -5,-8 3,-17 z"
         id="path100" />
      <path
         style="fill:#bebebe;fill-opacity:1"
         d="m 5077,1856 c -49,-46 -60,-64 -29,-47 34,18 98,91 79,91 -1,0 -23,-20 -50,-44 z"
         id="path102" />
      <path
         style="fill:#bebebe;fill-opacity:1"
         d="m 2010,1808 c 0,-15 98,-93 107,-85 5,5 -50,58 -87,84 -16,12 -20,12 -20,1 z"
         id="path104" />
      <path
         style="fill:#bebebe;fill-opacity:1"
         d="m 4900,1706 c -19,-13 -44,-34 -55,-46 l -20,-23 25,13 c 41,21 114,80 99,79 -8,0 -30,-11 -49,-23 z"
         id="path106" />
      <path
         style="fill:#bebebe;fill-opacity:1"
         d="m 2210,1651 c 0,-12 112,-83 119,-75 7,6 -29,35 -81,64 -21,12 -38,17 -38,11 z"
         id="path108" />
      <path
         style="fill:#bebebe;fill-opacity:1"
         d="m 4677,1556 c -21,-13 -43,-28 -49,-34 -22,-22 7,-12 67,23 35,20 52,34 40,34 -11,-1 -37,-11 -58,-23 z"
         id="path110" />
      <path
         style="fill:#bebebe;fill-opacity:1"
         d="m 2430,1512 c 0,-10 92,-62 109,-62 20,0 11,17 -16,30 -67,31 -93,40 -93,32 z"
         id="path112" />
      <path
         style="fill:#bebebe;fill-opacity:1"
         d="m 4463,1446 c -58,-24 -87,-46 -62,-46 21,0 119,50 119,61 0,5 -1,9 -2,8 -2,0 -27,-11 -55,-23 z"
         id="path114" />
      <path
         style="fill:#bebebe;fill-opacity:1"
         d="m 2660,1406 c 0,-12 43,-32 109,-51 16,-5 21,-4 17,4 -4,6 -12,11 -18,11 -5,0 -32,11 -59,25 -35,17 -49,20 -49,11 z"
         id="path116" />
      <path
         style="fill:#bebebe;fill-opacity:1"
         d="m 4221,1349 c -30,-10 -60,-24 -65,-30 -8,-9 -6,-10 6,-6 9,3 32,9 50,12 33,6 75,31 67,39 -2,2 -29,-4 -58,-15 z"
         id="path118" />
      <path
         style="fill:#bebebe;fill-opacity:1"
         d="m 2906,1322 c -4,-3 13,-14 36,-23 46,-19 98,-25 83,-10 -14,13 -112,41 -119,33 z"
         id="path120" />
      <path
         style="fill:#bebebe;fill-opacity:1"
         d="m 3976,1289 c -72,-11 -87,-34 -17,-25 57,7 90,20 75,28 -5,2 -31,1 -58,-3 z"
         id="path122" />
      <path
         style="fill:#bebebe;fill-opacity:1"
         d="m 3145,1262 c 6,-6 32,-13 58,-16 27,-3 52,-8 57,-11 5,-3 11,-1 14,4 8,12 -17,21 -83,27 -39,4 -53,3 -46,-4 z"
         id="path124" />
      <path
         style="fill:#bebebe;fill-opacity:1"
         d="m 3738,1255 c -2,-2 -21,-6 -42,-9 -62,-10 -55,-16 17,-16 66,0 98,14 52,22 -13,3 -26,4 -27,3 z"
         id="path126" />
      <path
         style="fill:#bebebe;fill-opacity:1"
         d="m 3425,1239 c -37,-5 -36,-6 28,-13 44,-6 72,-5 79,2 12,12 -50,19 -107,11 z"
         id="path128" />
      <path
         style="fill:#bebebe;fill-opacity:1"
         d="m 5254,5728 c -80,-62 -91,-148 -24,-183 45,-23 107,10 140,75 26,52 25,62 -9,99 -35,37 -67,40 -107,9 z"
         id="path130" />
      <path
         style="fill:#bebebe;fill-opacity:1"
         d="m 1390,5642 c -74,-33 -113,-129 -79,-195 17,-32 70,-87 101,-103 35,-18 101,-18 138,1 36,19 70,74 72,117 4,101 -147,218 -232,180 z"
         id="path132" />
      <path
         style="fill:#bebebe;fill-opacity:1"
         d="m 5488,5481 c -18,-16 -43,-47 -56,-69 l -22,-40 35,-31 c 20,-17 44,-31 54,-31 22,0 93,50 115,82 59,84 -46,159 -126,89 z"
         id="path134" />
      <path
         style="fill:#bebebe;fill-opacity:1"
         d="m 1110,5108 c -35,-12 -59,-47 -54,-76 6,-31 22,-62 32,-62 8,1 82,117 82,129 0,14 -34,19 -60,9 z"
         id="path136" />
      <path
         style="fill:#bebebe;fill-opacity:1"
         d="m 6190,4361 c 0,-14 42,-136 49,-144 12,-12 41,16 50,51 9,29 7,37 -17,62 -25,27 -82,49 -82,31 z"
         id="path138" />
      <path
         style="fill:#bebebe;fill-opacity:1"
         d="m 744,4315 c -48,-20 -64,-84 -31,-123 22,-27 97,-54 131,-48 49,9 78,45 71,87 -8,42 -28,65 -70,79 -54,18 -69,19 -101,5 z"
         id="path140" />
      <path
         style="fill:#bebebe;fill-opacity:1"
         d="m 6224,3895 c -35,-15 -59,-42 -67,-74 -15,-62 102,-98 184,-55 47,24 55,90 16,123 -22,17 -98,21 -133,6 z"
         id="path142" />
      <path
         style="fill:#bebebe;fill-opacity:1"
         d="m 641,3831 c -66,-66 -14,-151 93,-151 61,0 100,33 100,84 0,56 -29,79 -108,84 -55,4 -67,1 -85,-17 z"
         id="path144" />
      <path
         style="fill:#bebebe;fill-opacity:1"
         d="m 631,3494 c -85,-71 28,-168 141,-121 30,12 38,22 43,50 12,65 -24,97 -110,97 -32,0 -51,-7 -74,-26 z"
         id="path146" />
      <path
         style="fill:#bebebe;fill-opacity:1"
         d="m 6203,3460 c -55,-22 -30,-119 38,-143 31,-10 36,6 24,66 -14,68 -30,89 -62,77 z"
         id="path148" />
      <path
         style="fill:#bebebe;fill-opacity:1"
         d="m 710,3198 c -75,-19 -104,-96 -55,-142 48,-45 133,-35 180,20 32,37 31,57 -4,96 -31,34 -62,41 -121,26 z"
         id="path150" />
      <path
         style="fill:#bebebe;fill-opacity:1"
         d="m 600,2803 c -23,-30 -23,-41 5,-137 l 16,-54 40,9 c 22,5 53,15 68,22 l 29,12 -14,55 c -23,86 -44,114 -86,118 -29,3 -40,-2 -58,-25 z"
         id="path152" />
      <path
         style="fill:#bebebe;fill-opacity:1"
         d="m 884,2305 c -16,-24 -16,-29 -1,-60 20,-43 67,-70 91,-52 14,11 12,18 -17,71 -18,33 -38,61 -45,64 -6,2 -18,-9 -28,-23 z"
         id="path154" />
      <path
         style="fill:#bebebe;fill-opacity:1"
         d="m 5958,2103 c -19,-21 -58,-98 -58,-113 0,-15 53,-12 77,5 27,19 39,75 24,104 -14,26 -23,26 -43,4 z"
         id="path156" />
      <path
         style="fill:#bebebe;fill-opacity:1"
         d="m 5336,1564 c -27,-26 -35,-50 -30,-80 12,-67 35,-63 85,15 22,34 26,48 18,62 -12,23 -52,25 -73,3 z"
         id="path158" />
      <path
         style="fill:#bebebe;fill-opacity:1"
         d="m 4085,734 c -4,-31 -9,-67 -11,-81 -3,-13 -2,-28 1,-33 4,-7 113,15 123,25 5,5 -91,145 -99,145 -4,0 -10,-25 -14,-56 z"
         id="path160" />
      <path
         style="fill:#bebebe;fill-opacity:1"
         d="m 3226,659 c -20,-45 -34,-84 -31,-87 3,-4 30,-9 60,-12 64,-7 65,-6 39,94 -25,95 -27,95 -68,5 z"
         id="path162" />
      <path
         style="fill:#bebebe;fill-opacity:1"
         d="m 3675,790 c -46,-5 -50,-7 -48,-30 1,-14 2,-44 4,-67 3,-50 13,-56 81,-47 55,7 108,44 108,74 0,50 -60,79 -145,70 z"
         id="path164" />
      <path
         style="fill:#bebebe;fill-opacity:1"
         d="m 2453,6843 c -94,-32 -123,-46 -123,-59 0,-19 15,-18 97,10 83,28 113,43 113,56 0,12 -38,9 -87,-7 z"
         id="path166" />
      <path
         style="fill:#bebebe;fill-opacity:1"
         d="m 4634,6799 c -8,-14 22,-34 76,-52 25,-9 61,-22 81,-31 35,-14 49,-13 49,5 0,21 -195,95 -206,78 z"
         id="path168" />
      <path
         style="fill:#bebebe;fill-opacity:1"
         d="m 2130,6723 c -57,-20 -160,-78 -160,-90 0,-19 23,-12 120,36 84,41 113,80 40,54 z"
         id="path170" />
      <path
         style="fill:#bebebe;fill-opacity:1"
         d="m 4996,6651 c -8,-12 21,-35 89,-69 119,-60 163,-50 52,12 -83,47 -135,68 -141,57 z"
         id="path172" />
      <path
         style="fill:#bebebe;fill-opacity:1"
         d="m 1714,6513 c -43,-27 -80,-56 -82,-65 -5,-25 19,-22 25,3 4,13 8,17 13,9 9,-14 150,67 150,87 0,22 -24,15 -106,-34 z"
         id="path174" />
      <path
         style="fill:#bebebe;fill-opacity:1"
         d="m 5336,6461 c -7,-11 27,-41 103,-90 69,-44 81,-48 81,-28 0,16 -27,39 -103,88 -63,41 -72,44 -81,30 z"
         id="path176" />
      <path
         style="fill:#bebebe;fill-opacity:1"
         d="m 1469,6333 c 0,-10 -3,-13 -5,-6 -6,13 -28,2 -106,-57 -47,-35 -61,-60 -34,-60 17,0 150,98 165,123 9,13 8,17 -4,17 -8,0 -15,-8 -16,-17 z"
         id="path178" />
      <path
         style="fill:#bebebe;fill-opacity:1"
         d="m 5661,6237 c -10,-9 3,-26 61,-79 45,-42 82,-68 96,-68 22,0 22,1 6,23 -10,12 -48,48 -84,79 -52,45 -70,54 -79,45 z"
         id="path180" />
      <path
         style="fill:#bebebe;fill-opacity:1"
         d="m 1148,6099 c -10,-5 -18,-19 -18,-30 0,-12 -5,-17 -10,-14 -12,7 -100,-76 -100,-94 0,-26 32,-7 99,58 39,38 71,74 71,80 0,14 -19,14 -42,0 z"
         id="path182" />
      <path
         style="fill:#bebebe;fill-opacity:1"
         d="m 5957,5950 c 26,-45 129,-143 142,-136 18,12 14,20 -59,94 -74,77 -117,98 -83,42 z"
         id="path184" />
      <path
         style="fill:#bebebe;fill-opacity:1"
         d="m 816,5748 c -50,-60 -64,-84 -56,-92 9,-8 26,5 66,49 30,33 63,75 74,93 19,31 19,32 1,32 -11,0 -45,-33 -85,-82 z"
         id="path186" />
      <path
         style="fill:#bebebe;fill-opacity:1"
         d="m 6200,5683 c 0,-13 118,-166 135,-176 33,-18 13,31 -43,103 -51,66 -92,99 -92,73 z"
         id="path188" />
      <path
         style="fill:#bebebe;fill-opacity:1"
         d="m 636,5511 c -10,-11 -15,-25 -10,-32 4,-8 3,-10 -4,-5 -6,4 -19,-6 -29,-21 -10,-15 -24,-34 -31,-42 -8,-8 -11,-23 -9,-33 4,-14 1,-18 -9,-14 -9,4 -14,-1 -14,-15 0,-38 49,10 107,107 32,53 32,91 -1,55 z"
         id="path190" />
      <path
         style="fill:#bebebe;fill-opacity:1"
         d="m 6430,5365 c 0,-11 39,-83 52,-96 7,-8 21,-31 31,-52 17,-38 43,-46 41,-14 -3,27 -94,167 -110,167 -8,0 -14,-2 -14,-5 z"
         id="path192" />
      <path
         style="fill:#bebebe;fill-opacity:1"
         d="m 427,5177 c -34,-52 -87,-169 -81,-178 8,-13 41,16 50,43 3,10 20,45 38,76 30,53 36,82 16,82 -4,0 -14,-10 -23,-23 z"
         id="path194" />
      <path
         style="fill:#bebebe;fill-opacity:1"
         d="m 6620,5027 c 0,-14 23,-71 62,-154 22,-49 50,-59 42,-16 -7,38 -77,176 -91,181 -7,2 -13,-3 -13,-11 z"
         id="path196" />
      <path
         style="fill:#bebebe;fill-opacity:1"
         d="m 274,4842 c -14,-9 -72,-144 -79,-183 -4,-21 -1,-29 10,-29 16,0 30,29 65,133 23,67 24,92 4,79 z"
         id="path198" />
      <path
         style="fill:#bebebe;fill-opacity:1"
         d="m 6775,4670 c -9,-26 50,-204 70,-208 20,-5 17,27 -14,121 -26,78 -47,110 -56,87 z"
         id="path200" />
      <path
         style="fill:#bebebe;fill-opacity:1"
         d="m 137,4470 c -3,-8 -13,-37 -21,-65 -9,-27 -19,-73 -23,-103 -5,-47 -4,-52 11,-46 12,5 16,14 12,30 -3,12 -2,24 2,26 5,2 18,33 29,70 17,57 18,70 7,85 -11,15 -13,16 -17,3 z"
         id="path202" />
      <path
         style="fill:#bebebe;fill-opacity:1"
         d="m 6880,4288 c 0,-20 19,-125 31,-170 6,-22 16,-38 24,-38 18,0 12,75 -14,159 -15,50 -41,81 -41,49 z"
         id="path204" />
      <path
         style="fill:#bebebe;fill-opacity:1"
         d="m 41,4048 c -16,-76 -18,-170 -5,-175 17,-6 37,92 38,186 1,56 -21,48 -33,-11 z"
         id="path206" />
      <path
         style="fill:#bebebe;fill-opacity:1"
         d="m 6949,3893 c -1,-45 2,-128 6,-149 2,-10 4,-27 4,-37 1,-26 36,-18 35,8 0,37 -14,160 -20,183 -9,31 -24,28 -25,-5 z"
         id="path208" />
      <path
         style="fill:#bebebe;fill-opacity:1"
         d="m 8,3698 c -10,-24 -8,-193 1,-208 8,-12 11,-11 18,5 12,32 10,208 -3,212 -6,2 -14,-2 -16,-9 z"
         id="path210" />
      <path
         style="fill:#bebebe;fill-opacity:1"
         d="m 6971,3516 c -15,-18 -16,-215 -2,-229 17,-17 28,32 30,135 2,95 -6,121 -28,94 z"
         id="path212" />
      <path
         style="fill:#bebebe;fill-opacity:1"
         d="m 9,3305 c -3,-33 -2,-47 5,-130 7,-87 9,-90 29,-82 15,5 15,37 2,152 -6,53 -34,98 -36,60 z"
         id="path214" />
      <path
         style="fill:#bebebe;fill-opacity:1"
         d="m 6953,3118 c -10,-12 -13,-29 -29,-146 -7,-54 1,-79 20,-63 12,10 20,58 31,173 3,35 -8,53 -22,36 z"
         id="path216" />
      <path
         style="fill:#bebebe;fill-opacity:1"
         d="m 55,2921 c -3,-6 -3,-23 0,-38 3,-15 9,-57 15,-92 9,-65 21,-88 38,-77 12,7 8,43 -14,139 -16,67 -27,86 -39,68 z"
         id="path218" />
      <path
         style="fill:#bebebe;fill-opacity:1"
         d="m 6882,2723 c -5,-10 -19,-56 -31,-102 -19,-68 -20,-85 -9,-92 7,-5 16,-9 19,-9 5,0 48,177 50,205 1,18 -20,16 -29,-2 z"
         id="path220" />
      <path
         style="fill:#bebebe;fill-opacity:1"
         d="m 137,2543 c -8,-13 55,-202 70,-207 21,-8 15,40 -15,128 -25,74 -43,99 -55,79 z"
         id="path222" />
      <path
         style="fill:#bebebe;fill-opacity:1"
         d="m 6771,2352 c -40,-75 -73,-202 -53,-202 16,0 82,162 82,202 0,23 -16,23 -29,0 z"
         id="path224" />
      <path
         style="fill:#bebebe;fill-opacity:1"
         d="m 267,2174 c -7,-8 3,-35 49,-129 60,-124 78,-86 20,41 -32,68 -53,99 -40,57 5,-14 4,-15 -4,-4 -6,8 -8,20 -5,28 5,13 -8,18 -20,7 z"
         id="path226" />
      <path
         style="fill:#bebebe;fill-opacity:1"
         d="m 6621,1986 c -11,-13 -65,-116 -83,-158 -4,-10 -1,-18 7,-22 15,-5 66,75 100,157 13,31 13,37 1,37 -7,0 -19,-6 -25,-14 z"
         id="path228" />
      <path
         style="fill:#bebebe;fill-opacity:1"
         d="m 445,1803 c 7,-30 80,-159 95,-168 24,-15 29,8 10,46 -12,22 -25,37 -30,34 -5,-3 -12,0 -16,6 -4,8 -3,9 4,5 7,-4 12,-5 12,-2 0,7 -40,78 -52,94 -18,21 -31,13 -23,-15 z"
         id="path230" />
      <path
         style="fill:#bebebe;fill-opacity:1"
         d="m 6383,1580 c -52,-78 -66,-116 -40,-108 16,5 117,155 117,174 0,33 -28,9 -77,-66 z"
         id="path232" />
      <path
         style="fill:#bebebe;fill-opacity:1"
         d="m 651,1473 c 12,-33 116,-163 129,-163 6,0 10,6 10,13 0,12 -54,97 -68,107 -5,3 -18,20 -31,38 -29,41 -55,44 -40,5 z"
         id="path234" />
      <path
         style="fill:#bebebe;fill-opacity:1"
         d="m 6200,1331 c -8,-11 -39,-47 -67,-81 -58,-66 -69,-97 -30,-79 28,14 129,133 131,155 2,24 -17,26 -34,5 z"
         id="path236" />
      <path
         style="fill:#bebebe;fill-opacity:1"
         d="m 894,1185 c -4,-11 5,-28 27,-52 19,-20 50,-53 70,-75 39,-40 59,-48 59,-23 0,20 -76,102 -101,110 -10,4 -19,12 -19,19 0,8 -7,19 -15,26 -12,10 -16,9 -21,-5 z"
         id="path238" />
      <path
         style="fill:#bebebe;fill-opacity:1"
         d="m 5878,982 c -49,-48 -69,-74 -66,-88 3,-16 16,-7 77,51 82,79 101,105 75,105 -9,0 -48,-31 -86,-68 z"
         id="path240" />
      <path
         style="fill:#bebebe;fill-opacity:1"
         d="m 1165,910 c -7,-11 63,-80 122,-121 47,-33 53,-35 53,-15 0,15 -9,26 -56,65 -16,13 -44,37 -62,53 -35,30 -47,34 -57,18 z"
         id="path242" />
      <path
         style="fill:#bebebe;fill-opacity:1"
         d="m 5587,738 c -77,-54 -95,-74 -79,-90 12,-12 182,115 182,134 0,18 -31,5 -103,-44 z"
         id="path244" />
      <path
         style="fill:#bebebe;fill-opacity:1"
         d="m 1467,668 c -7,-22 173,-141 189,-125 4,3 1,13 -5,21 -12,15 -165,116 -175,116 -2,0 -6,-6 -9,-12 z"
         id="path246" />
      <path
         style="fill:#bebebe;fill-opacity:1"
         d="m 5315,549 c -78,-41 -130,-72 -137,-83 -23,-34 14,-35 64,-1 20,14 40,25 43,25 14,0 65,42 75,61 14,24 4,24 -45,-2 z"
         id="path248" />
      <path
         style="fill:#bebebe;fill-opacity:1"
         d="m 1805,459 c -4,-5 1,-17 11,-24 39,-30 153,-85 175,-85 21,0 21,1 5,19 -9,10 -52,36 -94,56 -42,21 -80,40 -84,42 -4,2 -10,-2 -13,-8 z"
         id="path250" />
      <path
         style="fill:#bebebe;fill-opacity:1"
         d="m 4925,344 c -80,-35 -114,-58 -103,-70 16,-15 205,70 201,91 -3,18 -18,15 -98,-21 z"
         id="path252" />
      <path
         style="fill:#bebebe;fill-opacity:1"
         d="m 2155,290 c -7,-11 14,-26 77,-54 68,-30 123,-42 132,-27 6,9 -54,42 -116,62 -73,24 -88,27 -93,19 z"
         id="path254" />
      <path
         style="fill:#bebebe;fill-opacity:1"
         d="m 4552,201 c -82,-28 -112,-45 -99,-57 16,-16 207,50 207,72 0,19 -12,18 -108,-15 z"
         id="path256" />
      <path
         style="fill:#bebebe;fill-opacity:1"
         d="m 2520,161 c 0,-17 26,-29 112,-51 85,-22 134,-22 111,1 -11,11 -182,59 -209,59 -8,0 -14,-4 -14,-9 z"
         id="path258" />
      <path
         style="fill:#bebebe;fill-opacity:1"
         d="m 4200,109 c -19,-4 -49,-10 -66,-13 -46,-8 -65,-17 -61,-30 4,-13 12,-13 87,-3 79,11 130,28 130,44 0,15 -35,16 -90,2 z"
         id="path260" />
      <path
         style="fill:#bebebe;fill-opacity:1"
         d="m 2907,84 c -12,-12 6,-33 31,-38 114,-23 169,-27 181,-12 11,12 6,16 -26,25 -21,5 -60,12 -88,16 -27,3 -59,8 -71,10 -12,3 -24,2 -27,-1 z"
         id="path262" />
      <path
         style="fill:#bebebe;fill-opacity:1"
         d="m 3747,46 c -55,-7 -67,-12 -65,-25 3,-13 14,-16 53,-14 114,6 183,23 170,43 -6,10 -58,9 -158,-4 z"
         id="path264" />
      <path
         style="fill:#bebebe;fill-opacity:1"
         d="m 3307,42 c -10,-2 -16,-9 -14,-15 5,-16 43,-24 135,-26 68,-2 82,1 82,13 0,9 -6,17 -12,17 -7,1 -26,3 -43,5 -60,7 -130,10 -148,6 z"
         id="path266" />
    </g>
  </g>
</svg>
