<?xml version="1.0" encoding="iso-8859-1"?>
<!-- Generator: Adobe Illustrator 19.0.0, SVG Export Plug-In . SVG Version: 6.00 Build 0)  -->
<svg version="1.1" id="Capa_1" xmlns="http://www.w3.org/2000/svg" xmlns:xlink="http://www.w3.org/1999/xlink" x="0px" y="0px"
	 viewBox="0 0 480 480" style="enable-background:new 0 0 480 480;" xml:space="preserve">
<path id="XMLID_1990_" d="M400,0c-5.522,0-10,4.478-10,10v25.368C384.113,31.955,377.28,30,370,30h-24V10c0-5.522-4.478-10-10-10
	s-10,4.478-10,10v20h-44V10c0-5.522-4.478-10-10-10s-10,4.478-10,10v20h-44V10c0-5.522-4.477-10-10-10s-10,4.478-10,10v20h-44V10
	c0-5.522-4.477-10-10-10s-10,4.478-10,10v20h-24c-7.28,0-14.113,1.955-20,5.368V10c0-5.522-4.477-10-10-10S70,4.478,70,10v460
	c0,5.522,4.477,10,10,10s10-4.478,10-10v-25.368c5.887,3.413,12.72,5.368,20,5.368h24v20c0,5.522,4.477,10,10,10s10-4.478,10-10v-20
	h44v20c0,5.522,4.477,10,10,10s10-4.478,10-10v-20h44v20c0,5.522,4.478,10,10,10s10-4.478,10-10v-20h44v20c0,5.522,4.478,10,10,10
	s10-4.478,10-10v-20h24c7.28,0,14.113-1.955,20-5.368V470c0,5.522,4.478,10,10,10s10-4.478,10-10V10C410,4.478,405.522,0,400,0z
	 M390,410c0,11.028-8.972,20-20,20h-24v-20c0-5.522-4.478-10-10-10s-10,4.478-10,10v20h-44v-20c0-5.522-4.478-10-10-10
	s-10,4.478-10,10v20h-44v-20c0-5.522-4.477-10-10-10s-10,4.478-10,10v20h-44v-20c0-5.522-4.477-10-10-10s-10,4.478-10,10v20h-24
	c-11.028,0-20-8.972-20-20V70c0-11.028,8.972-20,20-20h24v20c0,5.522,4.477,10,10,10s10-4.478,10-10V50h44v20
	c0,5.522,4.477,10,10,10s10-4.478,10-10V50h44v20c0,5.522,4.478,10,10,10s10-4.478,10-10V50h44v20c0,5.522,4.478,10,10,10
	s10-4.478,10-10V50h24c11.028,0,20,8.972,20,20V410z M290,172.5c-13.086,0-24.7,7.282-30.694,18.192
	c-12.379-4.207-26.231-4.209-38.611,0C214.7,179.782,203.086,172.5,190,172.5c-19.299,0-35,15.701-35,35
	c0,15.948,10.721,29.438,25.335,33.643c-0.223,2.106-0.335,4.228-0.335,6.357c0,33.084,26.916,60,60,60s60-26.916,60-60
	c0-2.13-0.112-4.251-0.335-6.356C314.278,236.938,325,223.448,325,207.5C325,188.201,309.299,172.5,290,172.5z M290,222.5
	c-0.442,0-0.902-0.022-1.405-0.069c-3.334-0.315-6.607,1.072-8.711,3.682c-2.103,2.609-2.759,6.099-1.747,9.294
	c1.236,3.905,1.863,7.975,1.863,12.094c0,22.056-17.944,40-40,40c-22.056,0-40-17.944-40-40c0-4.12,0.627-8.189,1.863-12.093
	c1.012-3.195,0.356-6.685-1.747-9.295c-1.908-2.367-4.777-3.725-7.785-3.725c-0.308,0-1.889,0.112-2.332,0.112
	c-8.271,0-15-6.729-15-15s6.729-15,15-15c7.532,0,13.926,5.625,14.872,13.084c0.422,3.331,2.49,6.229,5.502,7.713
	c3.014,1.482,6.57,1.354,9.469-0.341c6.099-3.569,13.069-5.456,20.157-5.456c7.087,0,14.058,1.887,20.157,5.456
	c2.9,1.697,6.457,1.824,9.469,0.34c3.014-1.483,5.08-4.381,5.503-7.713c0.945-7.459,7.339-13.083,14.871-13.083
	c8.271,0,15,6.729,15,15S298.271,222.5,290,222.5z"/>
<g>
</g>
<g>
</g>
<g>
</g>
<g>
</g>
<g>
</g>
<g>
</g>
<g>
</g>
<g>
</g>
<g>
</g>
<g>
</g>
<g>
</g>
<g>
</g>
<g>
</g>
<g>
</g>
<g>
</g>
</svg>
