<?xml version="1.0" encoding="utf-8"?>
<!-- Generator: Adobe Illustrator 14.0.0, SVG Export Plug-In . SVG Version: 6.00 Build 43363)  -->
<!DOCTYPE svg PUBLIC "-//W3C//DTD SVG 1.1//EN" "http://www.w3.org/Graphics/SVG/1.1/DTD/svg11.dtd">
<svg version="1.1" id="svg2" xmlns:svg="http://www.w3.org/2000/svg"
	 xmlns="http://www.w3.org/2000/svg" xmlns:xlink="http://www.w3.org/1999/xlink" x="0px" y="0px" width="494.504px"
	 height="324.266px" viewBox="0 0 494.504 324.266" enable-background="new 0 0 494.504 324.266" xml:space="preserve">
<g id="layer1" transform="translate(-145.71818,-86.362698)">
	<g id="g2562" transform="matrix(1.6213266,0,0,1.6213266,-2030.3338,564.27767)">
		<path id="rect2467" fill="#EC6D00" d="M1382.142-294.768c-22.16,0-40,17.84-40,40v120c0,22.16,17.84,40,40,40h225
			c22.159,0,39.999-17.84,39.999-40v-120c0-22.16-17.84-40-39.999-40H1382.142z M1381.111-274.768h78.031v160h-77
			c-11.08,0-20-8.92-20-20v-120C1362.143-265.502,1370.515-274.234,1381.111-274.768z M1479.142-274.768h128c11.079,0,20,8.92,20,20
			v120c0,11.08-8.92,20-20,20h-128V-274.768z"/>
		<path id="rect2483" fill="#EC6D00" d="M1383.678-267.768c-7.176,0-13,5.99-13,13.375c0,7.386,5.824,13.406,13,13.406h19.219
			v106.218c0,7.176,5.99,13,13.375,13c7.386,0,13.406-5.824,13.406-13v-133H1383.678z"/>
		<g id="g2541" transform="translate(-3.28106,-217.0485)">
			<path id="path2522" fill="#EC6D00" d="M1503.256,91.469c5.845,4.515,14.145,3.568,18.532-2.112l90.989-117.793
				c4.387-5.679,3.208-13.95-2.637-18.465c-5.845-4.514-14.17-3.586-18.556,2.092l-90.99,117.793
				C1496.207,78.665,1497.411,86.954,1503.256,91.469z"/>
			<path id="path2532" fill="#EC6D00" d="M1529.125-49.313c-16.589,0-30.063,13.474-30.063,30.063
				c0,16.589,13.474,30.031,30.063,30.031c16.588,0,30.031-13.442,30.031-30.031C1559.155-35.839,1545.713-49.313,1529.125-49.313z
				 M1529.125-27.781c4.708,0,8.531,3.823,8.531,8.531s-3.823,8.531-8.531,8.531c-4.709,0-8.531-3.823-8.531-8.531
				S1524.416-27.781,1529.125-27.781z"/>
			<path id="path2539" fill="#EC6D00" d="M1584.288,33.78c-16.589,0-30.063,13.473-30.063,30.063
				c0,16.589,13.474,30.031,30.063,30.031c16.588,0,30.031-13.443,30.031-30.031C1614.318,47.254,1600.876,33.78,1584.288,33.78z
				 M1584.288,55.311c4.708,0,8.531,3.823,8.531,8.531s-3.824,8.531-8.531,8.531c-4.709,0-8.531-3.823-8.531-8.531
				S1579.579,55.311,1584.288,55.311z"/>
		</g>
	</g>
</g>
</svg>
