<?xml version="1.0" encoding="UTF-8" standalone="no"?>
<!DOCTYPE svg PUBLIC "-//W3C//DTD SVG 1.1//EN" "http://www.w3.org/Graphics/SVG/1.1/DTD/svg11.dtd">
<svg width="100%" height="100%" viewBox="0 0 751 248" version="1.1" xmlns="http://www.w3.org/2000/svg" xmlns:xlink="http://www.w3.org/1999/xlink" xml:space="preserve" xmlns:serif="http://www.serif.com/" style="fill-rule:evenodd;clip-rule:evenodd;stroke-linecap:round;stroke-linejoin:round;stroke-miterlimit:10;">
    <g transform="matrix(1,0,0,1,0,-0.0004)">
        <path d="M171.23,181.266L130.474,198.785L101.505,187.234L101.505,154.961L105.929,165.248L130.158,174.91L154.124,164.609L154.194,164.429L185.072,146.55L171.23,181.266ZM72.279,142.83L101.833,125.716L95.626,141.284L95.858,141.824L95.858,184.982L89.271,182.356L72.279,142.83ZM87.685,101.638L120.684,110.435L105.288,117.054L105.217,117.231L74.339,135.111L87.685,101.638ZM128.93,51.32L169.159,97.833L160.1,131.81L153.481,116.413L153.428,116.392L124.955,56.073L128.93,51.32ZM163.784,140.377L163.708,140.201L172.9,105.725L187.132,138.831L157.577,155.945L163.784,140.377ZM129.335,112.864L149.217,120.791L157.672,140.459L149.744,160.343L130.076,168.798L110.192,160.87L101.738,141.203L109.666,121.318L129.335,112.864ZM129.253,106.751L129.077,106.828L90.999,96.676L120.964,60.845L145.736,113.324L129.253,106.751ZM174.695,95.599L128.858,42.603L83.536,96.798L65.637,141.682L85.006,186.736L130.556,204.897L175.61,185.531L193.772,139.979L174.695,95.599Z" style="fill:rgb(237,27,44);fill-rule:nonzero;"/>
    </g>
    <g transform="matrix(1,0,0,1,0,14.5106)">
        <path d="M335.963,94.973L354.957,94.973L354.957,141.978L358.919,141.978L358.919,94.973L377.909,94.973L377.909,91.011L335.963,91.011L335.963,94.973Z" style="fill-rule:nonzero;"/>
    </g>
    <g transform="matrix(1,0,0,1,0,14.455)">
        <path d="M261.558,121.72L240.947,121.72L240.947,96.797L249.074,96.057L249.074,96.095L250.012,96.005C250.567,95.953 251.322,95.872 252.193,95.779L252.289,95.768C255.265,95.453 259.764,94.976 261.558,94.976C268.643,94.976 274.407,100.274 274.407,106.786C274.407,115.719 269.588,121.302 261.558,121.72M261.558,91.011C259.573,91.011 255.201,91.473 251.949,91.819L251.949,91.816L236.983,93.177L236.983,142.034L240.947,142.034L240.947,125.683L261.657,125.68C267.238,125.391 271.731,123.151 274.651,119.205C277.048,115.961 278.371,111.55 278.371,106.786C278.371,98.09 270.826,91.011 261.558,91.011" style="fill-rule:nonzero;"/>
    </g>
    <g transform="matrix(1,0,0,1,0,12.124)">
        <path d="M300.231,120.932C300.231,120.932 309.702,98.981 309.776,98.812C309.959,98.382 309.959,97.99 309.959,97.99C309.959,97.99 309.959,98.382 310.14,98.782C310.193,98.901 326.968,135.777 327.214,136.316C327.458,136.854 327.791,137.325 328.019,137.681C328.019,137.681 327.119,136.869 326.773,136.665C325.96,136.18 300.231,120.932 300.231,120.932M308.815,91.011L285.84,144.364L290.133,144.364L298.653,124.603L331.99,144.365L335.228,144.357L310.953,91.011L308.815,91.011Z" style="fill-rule:nonzero;"/>
    </g>
    <g transform="matrix(1,0,0,1,0,14.5492)">
        <path d="M395.407,111.516L395.407,96.75L403.534,96.012L403.534,96.048L404.472,95.958C405.025,95.906 405.782,95.827 406.653,95.732L406.748,95.721C409.725,95.407 414.222,94.929 416.018,94.929C423.102,94.929 428.865,100.228 428.865,106.739C428.865,115.672 424.046,121.255 416.018,121.673L408.608,121.673L395.407,111.516ZM413.422,125.351C414.034,125.547 414.279,125.626 414.65,125.642C415.246,125.669 416.117,125.633 416.117,125.633C421.698,125.344 426.191,123.105 429.111,119.158C431.507,115.914 432.831,111.503 432.831,106.739C432.831,98.043 425.286,90.964 416.018,90.964C414.031,90.964 409.66,91.426 406.409,91.773L406.409,91.77L391.441,93.131L391.441,141.987L395.407,141.987L395.407,116.522L402.174,121.673L407.379,125.635L428.865,141.987L435.008,141.987C435.008,141.987 414.697,126.418 414.224,125.995C413.751,125.571 413.422,125.351 413.422,125.351" style="fill-rule:nonzero;"/>
    </g>
    <g transform="matrix(1,0,0,1,0,14.5507)">
        <path d="M546.828,135.307L511.58,90.972L507.807,90.972L507.807,141.977L511.77,141.977L511.77,97.582L547.035,141.936L550.789,141.936L550.789,90.972L546.828,90.972L546.828,135.307Z" style="fill-rule:nonzero;"/>
    </g>
    <g transform="matrix(1,0,0,1,0,14.4598)">
        <rect x="571.205" y="91.062" width="3.963" height="50.916"/>
    </g>
    <g transform="matrix(1,0,0,1,0,14.4598)">
        <path d="M588.258,95.025L606.806,95.025L606.802,141.978L610.768,141.978L610.768,95.025L630.208,95.025L630.208,91.062L588.258,91.062L588.258,95.025Z" style="fill-rule:nonzero;"/>
    </g>
    <g transform="matrix(1,0,0,1,0,14.4983)">
        <path d="M645.659,137.949L645.659,119.948L674.337,119.948L674.337,116.616C674.337,116.616 650.295,96.057 649.876,95.69C649.021,94.912 648.67,94.879 648.67,94.879C648.67,94.879 649.503,94.971 650.379,94.971L680.623,94.971L680.623,91.005L641.69,91.025L641.69,93.809C641.69,93.809 666.432,115.01 666.808,115.386C667.182,115.761 667.937,116.157 667.937,116.157C667.937,116.157 667.402,115.984 666.609,115.984L641.69,115.984L641.69,141.997L684.408,141.989L684.408,137.949L645.659,137.949Z" style="fill-rule:nonzero;"/>
    </g>
    <g transform="matrix(1,0,0,1,0,13.466)">
        <path d="M641.691,117.017L645.66,117.017" style="fill:none;fill-rule:nonzero;stroke:rgb(35,31,32);stroke-width:0.31px;"/>
    </g>
    <g transform="matrix(1,0,0,1,0,14.0934)">
        <path d="M488.14,120.299C488.14,127.5 484.519,131.936 483.213,133.387L482.412,134.278C478.891,137.702 474.306,139.599 469.438,139.636L469.143,139.625L468.848,139.636C463.98,139.599 459.395,137.702 455.873,134.278L455.073,133.387C453.767,131.936 450.146,127.5 450.146,120.299L450.146,113.56C450.146,102.818 458.605,93.951 469.029,93.786L469.143,93.782L469.257,93.786C479.681,93.951 488.14,102.818 488.14,113.56L488.14,120.299ZM470.73,89.891L470.72,89.863L470.075,89.826L469.252,89.808L469.143,89.815L469.034,89.808L468.211,89.826L467.566,89.863L467.556,89.891C455.52,90.816 446.184,101.093 446.184,113.56L446.184,120.299C446.184,125.708 448.018,130.929 451.359,135.061L452.171,135.951C456.523,140.72 462.619,143.599 468.983,143.599C469.037,143.599 469.089,143.596 469.143,143.593C469.197,143.596 469.249,143.599 469.303,143.599C475.667,143.599 481.761,140.72 486.114,135.951L486.927,135.061C490.268,130.929 492.102,125.708 492.102,120.299L492.102,113.56C492.102,101.093 482.765,90.816 470.73,89.891" style="fill-rule:nonzero;"/>
    </g>
</svg>
