<?xml version="1.0" encoding="iso-8859-1"?>
<!-- Generator: Adobe Illustrator 18.0.0, SVG Export Plug-In . SVG Version: 6.00 Build 0)  -->
<!DOCTYPE svg PUBLIC "-//W3C//DTD SVG 1.1//EN" "http://www.w3.org/Graphics/SVG/1.1/DTD/svg11.dtd">
<svg version="1.1" id="Capa_1" xmlns="http://www.w3.org/2000/svg" xmlns:xlink="http://www.w3.org/1999/xlink" x="0px" y="0px"
	 viewBox="0 0 486.001 486.001" style="enable-background:new 0 0 486.001 486.001;" xml:space="preserve">
<g>
	<path d="M311.458,380.647c-29.325,0-53.184,22.21-53.184,49.509c0,12.964,7.64,20.704,20.436,20.704
		c5.877,0,12.325-1.494,18.561-2.939c5.16-1.195,10.496-2.432,14.186-2.432c3.213,0,8.283,1.182,13.186,2.325
		c6.421,1.497,13.06,3.045,19.185,3.045c13.033-0.001,20.815-7.74,20.815-20.704C364.644,402.857,340.785,380.647,311.458,380.647z
		 M347.138,433.338c-0.007,0.005-0.727,0.522-3.31,0.522c-4.169,0-9.84-1.322-15.324-2.601c-6.107-1.425-11.877-2.77-17.046-2.77
		c-5.633,0-11.932,1.459-18.023,2.87c-5.306,1.229-10.791,2.5-14.725,2.5c-2.218,0-2.898-0.421-2.913-0.389
		c-0.038-0.059-0.522-0.857-0.522-3.315c0-17.926,16.232-32.509,36.184-32.509c19.953,0,36.186,14.583,36.186,32.509
		C347.644,432.24,347.257,433.188,347.138,433.338z"/>
	<path d="M284.994,364.412c0-14.963-10.379-27.136-23.137-27.136c-12.759,0-23.139,12.173-23.139,27.136
		c0,14.963,10.38,27.136,23.139,27.136C274.615,391.548,284.994,379.375,284.994,364.412z M255.718,364.412
		c0-5.801,3.241-10.136,6.139-10.136c2.896,0,6.137,4.335,6.137,10.136c0,5.801-3.24,10.136-6.137,10.136
		C258.96,374.548,255.718,370.213,255.718,364.412z"/>
	<path d="M313,374.767c12.759,0,23.139-12.173,23.139-27.136c0-14.963-10.38-27.136-23.139-27.136
		c-12.758,0-23.137,12.173-23.137,27.136C289.863,362.594,300.242,374.767,313,374.767z M313,337.495
		c2.897,0,6.139,4.335,6.139,10.136c0,5.801-3.241,10.136-6.139,10.136c-2.897,0-6.137-4.335-6.137-10.136
		C306.863,341.83,310.103,337.495,313,337.495z"/>
	<path d="M364.144,337.276c-12.759,0-23.139,12.173-23.139,27.136c0,14.963,10.38,27.136,23.139,27.136
		c12.759,0,23.139-12.173,23.139-27.136C387.283,349.449,376.903,337.276,364.144,337.276z M364.144,374.548
		c-2.897,0-6.139-4.335-6.139-10.136c0-5.801,3.241-10.136,6.139-10.136c2.897,0,6.139,4.335,6.139,10.136
		C370.283,370.213,367.042,374.548,364.144,374.548z"/>
	<path d="M384.5,132.001h-9v-24.5c0-11.304-9.196-20.5-20.5-20.5h-33.5v-24h14c11.304,0,20.5-9.196,20.5-20.5v-22
		c0-11.304-9.196-20.5-20.5-20.5h-84L249.63,0c-11.997,0-30.127,0-45.414,11.316c-17.417,12.892-25.883,36.285-25.883,71.518
		c0,4.694,3.806,8.5,8.5,8.5h29.667c4.694,0,8.5-3.806,8.5-8.5c0-8.378,2.932-13.778,9.226-16.996
		c5.489-2.806,11.52-2.838,11.751-2.839c0.063,0.001,0.127,0.002,0.19,0.002H304.5v24H271c-11.304,0-20.5,9.196-20.5,20.5v24.5h-9
		c-33.911,0-61.5,27.589-61.5,61.5v284c0,4.694,3.806,8.5,8.5,8.5h249c4.694,0,8.5-3.806,8.5-8.5v-284
		C446,159.59,418.412,132.001,384.5,132.001z M246.001,46c-11.761,0-32.898,6.165-37.217,28.334h-13.263
		C198.143,17.002,227.749,17,249.63,17l85.87,0.001c1.93,0,3.5,1.57,3.5,3.5v22c0,1.93-1.57,3.5-3.5,3.5h-89.333L246.001,46z
		 M267.5,107.501c0-1.93,1.57-3.5,3.5-3.5h84c1.93,0,3.5,1.57,3.5,3.5v24.5h-91V107.501z M241.501,149.001h143
		c24.537,0,44.5,19.963,44.5,44.5v23.305c-17.361-1.223-61.787-0.422-100.574,33.273c-23.533,20.443-50.833,30.043-76.869,27.036
		c-21.84-2.523-41.207-14.048-54.557-32.452v-51.162C197.001,168.964,216.963,149.001,241.501,149.001z M197.001,469.001V270.052
		c14.646,13.319,32.774,21.659,52.605,23.95c3.794,0.438,7.605,0.656,11.422,0.656c27.205,0,54.711-11.039,78.547-31.745
		c34.811-30.24,75.875-30.053,89.426-29.022v235.11H197.001z"/>
	<path d="M102.501,163.001c16.267,0,29.5-13.233,29.5-29.5c0-16.267-13.233-29.5-29.5-29.5s-29.5,13.233-29.5,29.5
		C73.001,149.768,86.234,163.001,102.501,163.001z M102.501,121.001c6.893,0,12.5,5.607,12.5,12.5c0,6.893-5.607,12.5-12.5,12.5
		c-6.893,0-12.5-5.607-12.5-12.5C90.001,126.608,95.608,121.001,102.501,121.001z"/>
	<path d="M110.001,239.501c-27.846,0-50.5,22.654-50.5,50.5s22.654,50.5,50.5,50.5s50.5-22.654,50.5-50.5
		S137.846,239.501,110.001,239.501z M110.001,323.501c-18.472,0-33.5-15.028-33.5-33.5c0-18.472,15.028-33.5,33.5-33.5
		s33.5,15.028,33.5,33.5C143.501,308.473,128.472,323.501,110.001,323.501z"/>
	<path d="M68.501,388.501c-15.715,0-28.5,12.785-28.5,28.5c0,15.715,12.785,28.5,28.5,28.5s28.5-12.785,28.5-28.5
		C97.001,401.286,84.215,388.501,68.501,388.501z M68.501,428.501c-6.341,0-11.5-5.159-11.5-11.5c0-6.341,5.159-11.5,11.5-11.5
		c6.341,0,11.5,5.159,11.5,11.5C80.001,423.342,74.841,428.501,68.501,428.501z"/>
</g>
<g>
</g>
<g>
</g>
<g>
</g>
<g>
</g>
<g>
</g>
<g>
</g>
<g>
</g>
<g>
</g>
<g>
</g>
<g>
</g>
<g>
</g>
<g>
</g>
<g>
</g>
<g>
</g>
<g>
</g>
</svg>
